<svg width="9" height="16" viewBox="0 0 9 16" fill="none" xmlns="http://www.w3.org/2000/svg">
<path d="M3.69653 7.90024L8.56853 12.7722C8.84853 13.0522 8.98386 13.3789 8.97453 13.7522C8.9652 14.1256 8.82053 14.4522 8.54053 14.7322C8.26053 15.0122 7.93386 15.1522 7.56053 15.1522C7.1872 15.1522 6.86053 15.0122 6.58053 14.7322L1.31653 9.49624C1.09253 9.27224 0.924531 9.02024 0.812531 8.74024C0.700531 8.46024 0.644531 8.18024 0.644531 7.90024C0.644531 7.62024 0.700531 7.34024 0.812531 7.06024C0.924531 6.78024 1.09253 6.52824 1.31653 6.30424L6.58053 1.04024C6.86053 0.76024 7.19186 0.624907 7.57453 0.634241C7.9572 0.643574 8.28853 0.788241 8.56853 1.06824C8.84853 1.34824 8.98853 1.67491 8.98853 2.04824C8.98853 2.42157 8.84853 2.74824 8.56853 3.02824L3.69653 7.90024Z" fill="#1C1B1F"/>
</svg>
