<svg width="24" height="24" viewBox="0 0 24 24" fill="none" xmlns="http://www.w3.org/2000/svg">
<g opacity="0.3">
<path d="M7.5 8.6303C7.91 8.6303 8.25 8.2903 8.25 7.8803V6.5003C8.25 5.4503 8.7 4.4303 9.48 3.7203C10.27 3.0003 11.29 2.6703 12.37 2.7703C14.17 2.9403 15.75 4.7803 15.75 6.7003V7.6703C15.75 8.0803 16.09 8.4203 16.5 8.4203C16.91 8.4203 17.25 8.0803 17.25 7.6703V6.6903C17.25 4.0003 15.08 1.5203 12.51 1.2703C11.01 1.1303 9.57 1.6003 8.47 2.6103C7.38 3.6003 6.75 5.0203 6.75 6.5003V7.8803C6.75 8.2903 7.09 8.6303 7.5 8.6303Z" fill="#101010"/>
<path d="M9.00018 22.75H15.0002C19.6202 22.75 20.4802 20.6 20.7002 18.51L21.4502 12.52C21.5602 11.44 21.6002 9.89 20.5502 8.73C19.6502 7.73 18.1602 7.25 16.0002 7.25H8.00018C5.83018 7.25 4.34018 7.74 3.45018 8.73C2.41018 9.89 2.44018 11.44 2.55018 12.5L3.30018 18.51C3.52018 20.6 4.38018 22.75 9.00018 22.75ZM16.0002 8.75C17.6902 8.75 18.8502 9.08 19.4402 9.74C19.9302 10.28 20.0902 11.11 19.9602 12.35L19.2102 18.34C19.0402 19.94 18.6002 21.26 15.0002 21.26H9.00018C5.40018 21.26 4.96018 19.95 4.79018 18.36L4.04018 12.35C3.91018 11.13 4.07018 10.3 4.56018 9.75C5.15018 9.08 6.31018 8.75 8.00018 8.75H16.0002Z" fill="#101010"/>
<path d="M8.57984 13.1504C9.13984 13.1504 9.58984 12.7004 9.58984 12.1504C9.58984 11.6004 9.13984 11.1504 8.58984 11.1504C8.03984 11.1504 7.58984 11.6004 7.58984 12.1504C7.58984 12.7004 8.02984 13.1504 8.57984 13.1504Z" fill="#101010"/>
<path d="M15.5798 13.1504C16.1398 13.1504 16.5898 12.7004 16.5898 12.1504C16.5898 11.6004 16.1398 11.1504 15.5898 11.1504C15.0398 11.1504 14.5898 11.6004 14.5898 12.1504C14.5898 12.7004 15.0298 13.1504 15.5798 13.1504Z" fill="#101010"/>
</g>
</svg>
