<svg width="24" height="23" viewBox="0 0 24 23" fill="none" xmlns="http://www.w3.org/2000/svg">
<path d="M7.0375 21.2142C8.12042 21.2142 9.26083 20.9667 10.4396 20.49C11.5896 20.0225 12.7492 19.3809 13.88 18.6017C15.0012 17.8134 16.0842 16.9334 17.1096 15.9709C18.1254 14.99 19.0454 13.9542 19.86 12.8909C20.6842 11.7909 21.3454 10.6909 21.815 9.62753C22.3133 8.49086 22.5625 7.39086 22.5625 6.35503C22.5625 5.64003 22.4283 4.96169 22.1696 4.32919C21.9013 3.67836 21.47 3.07336 20.8854 2.55086C20.1475 1.85419 19.3042 1.50586 18.4033 1.50586C18.0296 1.50586 17.6463 1.58836 17.3204 1.73503C16.9467 1.90003 16.6304 2.14753 16.4004 2.47753L14.1771 5.47503C13.9758 5.74086 13.8225 5.99753 13.7171 6.25419C13.5925 6.52919 13.5254 6.80419 13.5254 7.07003C13.5254 7.41836 13.6308 7.75753 13.8321 8.07836C13.9758 8.32586 14.1963 8.59169 14.4742 8.85753L15.1258 9.50836C15.1163 9.53586 15.1067 9.55419 15.0971 9.57253C14.9821 9.76503 14.7521 10.095 14.3113 10.59C13.8417 11.1034 13.4008 11.5709 12.96 12.0017C12.3946 12.5334 11.925 12.955 11.4842 13.3034C10.9379 13.7434 10.5833 13.9634 10.3725 14.0642L10.3917 14.11L9.69208 13.45C9.395 13.1659 9.1075 12.955 8.82958 12.8175C8.3025 12.5059 7.63167 12.4509 6.96083 12.7167C6.71167 12.8175 6.44333 12.955 6.15583 13.1475L2.97417 15.3109C2.61958 15.54 2.36083 15.8334 2.2075 16.1817C2.06375 16.53 1.99667 16.8509 1.99667 17.1717C1.99667 17.6117 2.10209 18.0517 2.30334 18.4642C2.50459 18.8767 2.75375 19.2342 3.07 19.5642C3.61625 20.1417 4.21042 20.5542 4.90042 20.82C5.56167 21.0767 6.28042 21.2142 7.0375 21.2142ZM18.4033 2.88086C18.9304 2.88086 19.4192 3.10086 19.8888 3.54086C20.3296 3.93503 20.6363 4.36586 20.8279 4.83336C21.0292 5.31003 21.125 5.81419 21.125 6.35503C21.125 7.20753 20.9142 8.13336 20.4925 9.08669C20.0612 10.0584 19.4575 11.0667 18.6908 12.075C17.9242 13.0834 17.0521 14.0642 16.0938 14.99C15.1354 15.8975 14.1004 16.7409 13.0367 17.4834C12.0017 18.2075 10.9379 18.7942 9.88375 19.2159C8.245 19.885 6.71167 20.0409 5.44667 19.5367C4.95792 19.3442 4.52667 19.0509 4.13375 18.6292C3.91333 18.4 3.74083 18.1525 3.59708 17.8592C3.48208 17.63 3.42458 17.3917 3.42458 17.1534C3.42458 17.0067 3.45333 16.86 3.53 16.695C3.55875 16.64 3.61625 16.5392 3.79833 16.42L6.98 14.2567C7.17167 14.1284 7.34417 14.0367 7.50708 13.9725C7.71792 13.89 7.80417 13.8075 8.13 14C8.32167 14.0917 8.49417 14.2292 8.68583 14.4125L9.41417 15.1C9.78792 15.4484 10.3629 15.5309 10.8038 15.375L11.0625 15.265C11.4554 15.0634 11.9154 14.7517 12.4233 14.3392C12.8833 13.9634 13.3817 13.5234 13.9854 12.955C14.455 12.4967 14.9246 12.0109 15.4133 11.47C15.8637 10.9659 16.1896 10.535 16.3908 10.1775L16.5058 9.90253C16.5633 9.69169 16.5825 9.57253 16.5825 9.44419C16.5825 9.11419 16.4579 8.82086 16.2183 8.59169L15.4996 7.87669C15.3079 7.69336 15.1642 7.51919 15.0683 7.36336C14.9917 7.24419 14.9629 7.14336 14.9629 7.05169C14.9629 6.97836 14.9917 6.86836 15.0396 6.75836C15.1067 6.61169 15.2121 6.44669 15.3463 6.27253L17.5696 3.26586C17.6654 3.13753 17.7804 3.04586 17.9242 2.98169C18.0775 2.91753 18.2404 2.88086 18.4033 2.88086ZM10.3917 14.1192L10.545 14.7425L10.2863 14.1009C10.3342 14.0917 10.3725 14.1009 10.3917 14.1192Z" fill="#A09CAB"/>
<path d="M6.0306 9.29622C6.42352 9.29622 6.74935 8.98456 6.74935 8.60872C6.74935 8.27872 7.09435 7.59122 7.66935 7.00456C8.23477 6.42706 8.85768 6.08789 9.38477 6.08789C9.77768 6.08789 10.1035 5.77622 10.1035 5.40039C10.1035 5.02456 9.77768 4.71289 9.38477 4.71289C8.45518 4.71289 7.47768 5.18956 6.62477 6.06039C5.82935 6.87622 5.31185 7.87539 5.31185 8.60872C5.31185 8.98456 5.63768 9.29622 6.0306 9.29622Z" fill="#A09CAB"/>
<path d="M2.67643 9.29753C3.06935 9.29753 3.39518 8.98586 3.39518 8.61003C3.39518 5.44753 6.07852 2.88086 9.38477 2.88086C9.77768 2.88086 10.1035 2.56919 10.1035 2.19336C10.1035 1.81753 9.77768 1.50586 9.38477 1.50586C5.29268 1.50586 1.95768 4.69586 1.95768 8.61003C1.95768 8.98586 2.28351 9.29753 2.67643 9.29753Z" fill="#A09CAB"/>
</svg>
