<svg width="25" height="25" viewBox="0 0 25 25" fill="none" xmlns="http://www.w3.org/2000/svg">
<path d="M8.5 23.25H16.5C20.15 23.25 22.25 21.15 22.25 17.5V7.5C22.25 3.85 20.15 1.75 16.5 1.75H8.5C4.85 1.75 2.75 3.85 2.75 7.5V17.5C2.75 21.15 4.85 23.25 8.5 23.25ZM16.5 3.25C19.36 3.25 20.75 4.64 20.75 7.5V17.5C20.75 20.36 19.36 21.75 16.5 21.75H8.5C5.64 21.75 4.25 20.36 4.25 17.5V7.5C4.25 4.64 5.64 3.25 8.5 3.25H16.5Z" fill="#101010"/>
<path d="M6 9.75H8C9.52 9.75 10.75 8.52 10.75 7V5C10.75 4.59 10.41 4.25 10 4.25C9.59 4.25 9.25 4.59 9.25 5V7C9.25 7.69 8.69 8.25 8 8.25H6C5.59 8.25 5.25 8.59 5.25 9C5.25 9.41 5.59 9.75 6 9.75Z" fill="#101010"/>
<path d="M12.5 14.25H16.5C16.91 14.25 17.25 13.91 17.25 13.5C17.25 13.09 16.91 12.75 16.5 12.75H12.5C12.09 12.75 11.75 13.09 11.75 13.5C11.75 13.91 12.09 14.25 12.5 14.25Z" fill="#101010"/>
<path d="M8.5 18.25H16.5C16.91 18.25 17.25 17.91 17.25 17.5C17.25 17.09 16.91 16.75 16.5 16.75H8.5C8.09 16.75 7.75 17.09 7.75 17.5C7.75 17.91 8.09 18.25 8.5 18.25Z" fill="#101010"/>
</svg>
