<svg width="17" height="17" viewBox="0 0 17 17" fill="none" xmlns="http://www.w3.org/2000/svg">
<path d="M13.0758 13.8262C13.5079 13.8262 13.9117 13.6774 14.2021 13.4012C14.5704 13.0541 14.7475 12.5299 14.6838 11.9633L14.4217 9.66828C14.3721 9.23619 14.11 8.66244 13.8054 8.35078L7.99001 2.19536C6.53793 0.658276 5.02209 0.615776 3.48501 2.06786C1.94793 3.51994 1.90543 5.03578 3.35751 6.57286L9.17293 12.7283C9.47043 13.047 10.0229 13.3445 10.455 13.4154L12.7358 13.8049C12.8563 13.812 12.9625 13.8262 13.0758 13.8262ZM5.71626 2.06078C6.26168 2.06078 6.73626 2.40078 7.21793 2.91078L13.0333 9.07328C13.175 9.22203 13.3379 9.57619 13.3663 9.78161L13.6283 12.0766C13.6567 12.3104 13.6 12.5016 13.4725 12.622C13.345 12.7424 13.1538 12.7849 12.92 12.7495L10.6392 12.3599C10.4338 12.3245 10.0938 12.1404 9.95209 11.9916L4.13668 5.83619C3.25834 4.90119 2.93959 4.03703 4.22167 2.83286C4.78834 2.28744 5.27709 2.06078 5.71626 2.06078Z" fill="#797D82"/>
<path d="M4.71748 7.75594C4.73164 7.75594 4.75289 7.75594 4.76706 7.75594C6.97706 7.53636 8.75498 5.85761 9.09498 3.66177C9.13748 3.37136 8.93914 3.10219 8.64873 3.05261C8.35831 3.01011 8.08914 3.20844 8.03956 3.49886C7.77039 5.21302 6.38206 6.53052 4.65373 6.70052C4.36331 6.72886 4.15081 6.99094 4.17914 7.28136C4.21456 7.55052 4.44831 7.75594 4.71748 7.75594Z" fill="#797D82"/>
<path d="M2.125 16.1152H14.875C15.1654 16.1152 15.4062 15.8744 15.4062 15.584C15.4062 15.2936 15.1654 15.0527 14.875 15.0527H2.125C1.83458 15.0527 1.59375 15.2936 1.59375 15.584C1.59375 15.8744 1.83458 16.1152 2.125 16.1152Z" fill="#797D82"/>
</svg>
