<svg width="121" height="121" viewBox="0 0 121 121" fill="none" xmlns="http://www.w3.org/2000/svg">
<path d="M45.1068 54.5806C37.4909 54.5813 31.3276 48.4192 31.327 40.8036C31.3263 33.188 37.4886 27.0249 45.1045 27.0242C52.7203 27.0236 58.8836 33.1857 58.8843 40.8013C58.8849 48.4169 52.7226 54.58 45.1068 54.5806ZM45.1051 34.5396C41.6479 34.5399 38.8423 37.3459 38.8426 40.803C38.8429 44.26 41.649 47.0655 45.1061 47.0652C48.5633 47.065 51.3689 44.259 51.3686 40.8019C51.3683 37.3448 48.5623 34.5393 45.1051 34.5396Z" fill="#B7B7B7"/>
<path d="M75.1743 114.701L45.1118 114.704C17.9052 114.706 6.28009 103.083 6.27779 75.8773L6.27525 45.8158C6.27295 18.6101 17.8961 6.98535 45.1027 6.98305L65.1444 6.98136C67.1986 6.98118 68.9023 8.68453 68.9025 10.7387C68.9027 12.7929 67.1993 14.4966 65.145 14.4967L45.1033 14.4984C22.0053 14.5004 13.7889 22.7179 13.7909 45.8152L13.7934 75.8767C13.7954 98.974 22.0131 107.19 45.1112 107.188L75.1737 107.186C98.2717 107.184 106.488 98.9662 106.486 75.8689L106.484 50.8176C106.484 48.7634 108.187 47.0598 110.242 47.0596C112.296 47.0594 113.999 48.7628 114 50.817L114.002 75.8682C114.004 103.074 102.381 114.699 75.1743 114.701Z" fill="#B7B7B7"/>
<path d="M106.482 29.5245L78.925 29.5268C76.8707 29.527 75.167 27.8236 75.1668 25.7694C75.1666 23.7152 76.87 22.0116 78.9243 22.0114L106.482 22.0091C108.536 22.0089 110.24 23.7122 110.24 25.7664C110.24 27.8207 108.537 29.5243 106.482 29.5245Z" fill="#B7B7B7"/>
<path d="M92.7047 43.3039C90.6505 43.3041 88.9468 41.6007 88.9466 39.5465L88.9443 11.9901C88.9441 9.93591 90.6475 8.23228 92.7018 8.2321C94.7561 8.23193 96.4597 9.93527 96.4599 11.9895L96.4622 39.5459C96.4624 41.6001 94.759 43.3037 92.7047 43.3039Z" fill="#B7B7B7"/>
<path d="M13.3946 99.425C12.1921 99.4251 10.9895 98.824 10.288 97.7719C9.13543 96.0685 9.58617 93.7137 11.2896 92.5612L35.9896 75.9751C41.4005 72.3673 48.8661 72.7675 53.7766 76.9256L55.4302 78.3784C57.9356 80.5326 62.1944 80.5323 64.6493 78.3776L85.4912 60.4893C90.8519 55.9295 99.1692 55.9288 104.531 60.4877L112.698 67.5013C114.252 68.854 114.452 71.2088 113.1 72.8122C111.747 74.3655 109.392 74.5661 107.789 73.2134L99.621 66.1998C97.1156 64.0456 92.8568 64.0459 90.4019 66.2005L69.56 84.0889C64.2494 88.6487 55.882 88.6494 50.5205 84.0905L48.8669 82.6377C46.5619 80.6839 42.754 80.4838 40.1988 82.2376L15.549 98.8236C14.8476 99.2245 14.096 99.425 13.3946 99.425Z" fill="#B7B7B7"/>
</svg>
