<svg width="17" height="18" viewBox="0 0 17 18" fill="none" xmlns="http://www.w3.org/2000/svg">
<path d="M3.92342 14.6397C3.49134 14.6397 3.08759 14.4822 2.79717 14.1897C2.42884 13.8222 2.25176 13.2672 2.31551 12.6672L2.57759 10.2372C2.62717 9.77967 2.88926 9.17217 3.19384 8.84217L9.00926 2.32467C10.4613 0.69717 11.9772 0.652171 13.5143 2.18967C15.0513 3.72717 15.0938 5.33217 13.6418 6.95967L7.82634 13.4772C7.52884 13.8147 6.97634 14.1297 6.54426 14.2047L4.26342 14.6172C4.14301 14.6247 4.03676 14.6397 3.92342 14.6397ZM11.283 2.18217C10.7376 2.18217 10.263 2.54217 9.78134 3.08217L3.96592 9.60717C3.82426 9.76467 3.66134 10.1397 3.63301 10.3572L3.37092 12.7872C3.34259 13.0347 3.39926 13.2372 3.52676 13.3647C3.65426 13.4922 3.84551 13.5372 4.07926 13.4997L6.36009 13.0872C6.56551 13.0497 6.90551 12.8547 7.04717 12.6972L12.8626 6.17967C13.7409 5.18967 14.0597 4.27467 12.7776 2.99967C12.2109 2.42217 11.7222 2.18217 11.283 2.18217Z" fill="#797D82"/>
<path d="M12.2817 8.21263C12.2675 8.21263 12.2463 8.21263 12.2321 8.21263C10.0221 7.98013 8.24417 6.20263 7.90417 3.87763C7.86167 3.57013 8.06 3.28513 8.35042 3.23263C8.64084 3.18763 8.91 3.39763 8.95959 3.70513C9.22875 5.52013 10.6171 6.91513 12.3454 7.09513C12.6358 7.12513 12.8483 7.40263 12.82 7.71013C12.7846 7.99513 12.5508 8.21263 12.2817 8.21263Z" fill="#797D82"/>
<path d="M14.875 17.0625H2.125C1.83458 17.0625 1.59375 16.8075 1.59375 16.5C1.59375 16.1925 1.83458 15.9375 2.125 15.9375H14.875C15.1654 15.9375 15.4062 16.1925 15.4062 16.5C15.4062 16.8075 15.1654 17.0625 14.875 17.0625Z" fill="#797D82"/>
</svg>
