<svg width="14" height="19" viewBox="0 0 14 19" fill="none" xmlns="http://www.w3.org/2000/svg">
<path fill-rule="evenodd" clip-rule="evenodd" d="M6.70833 0C2.99958 0 0 2.99958 0 6.70833C0 10.7046 4.23583 16.215 5.98 18.3137C6.36333 18.7738 7.06292 18.7738 7.44625 18.3137C9.18083 16.215 13.4167 10.7046 13.4167 6.70833C13.4167 2.99958 10.4171 0 6.70833 0ZM1.91667 6.70833C1.91667 4.06333 4.06333 1.91667 6.70833 1.91667C9.35333 1.91667 11.5 4.06333 11.5 6.70833C11.5 9.46833 8.74 13.5988 6.70833 16.1767C4.715 13.6179 1.91667 9.43958 1.91667 6.70833ZM4.3125 6.70833C4.3125 8.03083 5.38583 9.10417 6.70833 9.10417C8.03083 9.10417 9.10417 8.03083 9.10417 6.70833C9.10417 5.38583 8.03083 4.3125 6.70833 4.3125C5.38583 4.3125 4.3125 5.38583 4.3125 6.70833Z" fill="#37474F"/>
</svg>
