<svg width="21" height="22" viewBox="0 0 21 22" fill="none" xmlns="http://www.w3.org/2000/svg">
<path fill-rule="evenodd" clip-rule="evenodd" d="M10.7192 7.79297C9.87486 7.79297 9.18799 8.51255 9.18799 9.39805C9.18799 10.2826 9.87486 11.0013 10.7192 11.0013C11.5636 11.0013 12.2505 10.2826 12.2505 9.39805C12.2505 8.51255 11.5636 7.79297 10.7192 7.79297ZM10.7192 12.3763C9.15124 12.3763 7.87549 11.0407 7.87549 9.39805C7.87549 7.75447 9.15124 6.41797 10.7192 6.41797C12.2872 6.41797 13.563 7.75447 13.563 9.39805C13.563 11.0407 12.2872 12.3763 10.7192 12.3763Z" fill="#8891A5"/>
<mask id="mask0_276_8404" style="mask-type:luminance" maskUnits="userSpaceOnUse" x="3" y="1" width="15" height="19">
<path fill-rule="evenodd" clip-rule="evenodd" d="M3.5 1.83398L17.9371 1.83398V19.709H3.5L3.5 1.83398Z" fill="white"/>
</mask>
<g mask="url(#mask0_276_8404)">
<path fill-rule="evenodd" clip-rule="evenodd" d="M10.7183 3.20898C7.46151 3.20898 4.81201 6.01123 4.81201 9.45423C4.81201 13.835 9.73301 18.103 10.7183 18.3303C11.7035 18.1021 16.6245 13.8341 16.6245 9.45423C16.6245 6.01123 13.975 3.20898 10.7183 3.20898ZM10.7183 19.709C9.14851 19.709 3.49951 14.6197 3.49951 9.45423C3.49951 5.25223 6.73789 1.83398 10.7183 1.83398C14.6986 1.83398 17.937 5.25223 17.937 9.45423C17.937 14.6197 12.288 19.709 10.7183 19.709Z" fill="#8891A5"/>
</g>
</svg>
