<svg width="26" height="26" viewBox="0 0 26 26" fill="none" xmlns="http://www.w3.org/2000/svg">
<path d="M9.95152 2.67159L10.0815 2.67401C14.5207 2.75652 16.6278 4.54599 16.9249 8.47219C16.9573 8.88286 16.6505 9.24722 16.2298 9.27941C15.8291 9.31197 15.455 8.99496 15.4226 8.58429C15.191 5.43944 13.733 4.24214 10.0436 4.17356L9.91364 4.17115C5.84435 4.09551 4.37783 5.5085 4.3022 9.5778L4.18103 16.0967C4.10539 20.166 5.51838 21.6325 9.58768 21.7081L9.71766 21.7105C13.427 21.7795 14.9289 20.6172 15.2583 17.4228C15.3159 17.0138 15.6716 16.7103 16.0908 16.7581C16.5102 16.7959 16.8032 17.1714 16.7656 17.5808C16.3517 21.5538 14.169 23.2935 9.69978 23.2105L9.5698 23.208C4.66065 23.1168 2.60004 20.9781 2.69129 16.069L2.81245 9.55011C2.9037 4.64096 5.04236 2.58034 9.95152 2.67159Z" fill="#F84545"/>
<path d="M10.0142 12.1948L21.3923 12.4062C21.8022 12.4139 22.1358 12.7601 22.1282 13.1701C22.1206 13.58 21.7743 13.9136 21.3644 13.906L9.98635 13.6945C9.57642 13.6869 9.2428 13.3406 9.25042 12.9307C9.25804 12.5208 9.6043 12.1871 10.0142 12.1948Z" fill="#F84545"/>
<path d="M19.225 9.01488C19.415 9.01841 19.6036 9.09193 19.7508 9.24469L23.038 12.6564C23.3225 12.9517 23.3136 13.4316 23.0183 13.7162L19.6066 17.0033C19.3113 17.2879 18.8313 17.279 18.5468 16.9836C18.2622 16.6883 18.2711 16.2084 18.5665 15.9238L21.4384 13.1567L18.6713 10.2848C18.3867 9.98947 18.3956 9.50955 18.691 9.22499C18.8337 9.07762 19.035 9.01135 19.225 9.01488Z" fill="#F84545"/>
</svg>
