<svg width="21" height="22" viewBox="0 0 21 22" fill="none" xmlns="http://www.w3.org/2000/svg">
<path d="M13.9444 1.40039L6.77639 1.40039C4.89461 1.40039 3.95373 1.40039 3.23498 1.76661C2.60276 2.08874 2.08874 2.60276 1.76661 3.23498C1.40039 3.95373 1.40039 4.89461 1.40039 6.77639V10.5838C1.40039 12.4655 1.40039 13.4064 1.76661 14.1252C2.08874 14.7574 2.60276 15.2714 3.23498 15.5935C3.95373 15.9598 4.89461 15.9598 6.77639 15.9598H7.4804L10.3604 19.3204L13.2404 15.9598H13.9444C15.8262 15.9598 16.7671 15.9598 17.4858 15.5935C18.118 15.2714 18.632 14.7574 18.9542 14.1252C19.3204 13.4064 19.3204 12.4655 19.3204 10.5838V6.77639C19.3204 4.89461 19.3204 3.95373 18.9542 3.23498C18.632 2.60276 18.118 2.08874 17.4858 1.76661C16.7671 1.40039 15.8262 1.40039 13.9444 1.40039Z" stroke="#A09CAB" stroke-width="2.24" stroke-linecap="round"/>
</svg>
