<svg width="73" height="73" viewBox="0 0 73 73" fill="none" xmlns="http://www.w3.org/2000/svg">
<circle cx="36.5" cy="36.5" r="36.5" fill="#F3F3F3"/>
<path d="M36.865 41.1534C36.8041 41.1534 36.7129 41.1534 36.652 41.1534C36.5608 41.1534 36.4391 41.1534 36.3479 41.1534C29.4433 40.9405 24.2725 35.5567 24.2725 28.9259C24.2725 22.1734 29.7779 16.668 36.5304 16.668C43.2829 16.668 48.7883 22.1734 48.7883 28.9259C48.7579 35.5871 43.5566 40.9405 36.9562 41.1534C36.8954 41.1534 36.8954 41.1534 36.865 41.1534ZM36.5 21.2001C32.2416 21.2001 28.8045 24.6676 28.8045 28.8955C28.8045 33.0626 32.0591 36.4388 36.1958 36.5909C36.287 36.5605 36.5912 36.5605 36.8954 36.5909C40.9712 36.378 44.165 33.0321 44.1954 28.8955C44.1954 24.6676 40.7583 21.2001 36.5 21.2001Z" fill="#292D32"/>
<path d="M36.5002 69.1979C28.3181 69.1979 20.501 66.1562 14.4481 60.6204C13.9006 60.1337 13.6573 59.4037 13.7181 58.7041C14.1135 55.0846 16.3644 51.7083 20.1056 49.2141C29.1698 43.1916 43.861 43.1916 52.8948 49.2141C56.636 51.7387 58.8869 55.0846 59.2823 58.7041C59.3735 59.4341 59.0998 60.1337 58.5523 60.6204C52.4994 66.1562 44.6823 69.1979 36.5002 69.1979ZM18.4935 58.0958C23.5427 62.3237 29.8998 64.6354 36.5002 64.6354C43.1006 64.6354 49.4577 62.3237 54.5069 58.0958C53.9594 56.2404 52.4994 54.4458 50.3398 52.9858C42.8573 47.9975 30.1735 47.9975 22.6302 52.9858C20.4706 54.4458 19.041 56.2404 18.4935 58.0958Z" fill="#292D32"/>
<path d="M36.5002 69.1986C18.4631 69.1986 3.80225 54.5377 3.80225 36.5007C3.80225 18.4636 18.4631 3.80273 36.5002 3.80273C54.5372 3.80273 69.1981 18.4636 69.1981 36.5007C69.1981 54.5377 54.5372 69.1986 36.5002 69.1986ZM36.5002 8.36523C20.9877 8.36523 8.36475 20.9882 8.36475 36.5007C8.36475 52.0132 20.9877 64.6361 36.5002 64.6361C52.0127 64.6361 64.6356 52.0132 64.6356 36.5007C64.6356 20.9882 52.0127 8.36523 36.5002 8.36523Z" fill="#292D32"/>
</svg>
