<svg width="47" height="47" viewBox="0 0 47 47" fill="none" xmlns="http://www.w3.org/2000/svg">
<path d="M23.7345 26.497C23.6953 26.497 23.6365 26.497 23.5974 26.497C23.5386 26.497 23.4603 26.497 23.4015 26.497C18.9561 26.3599 15.627 22.8937 15.627 18.6245C15.627 14.277 19.1715 10.7324 23.519 10.7324C27.8665 10.7324 31.4111 14.277 31.4111 18.6245C31.3915 22.9133 28.0428 26.3599 23.7932 26.497C23.754 26.497 23.754 26.497 23.7345 26.497ZM23.4995 13.6503C20.7578 13.6503 18.5449 15.8828 18.5449 18.6049C18.5449 21.2878 20.6403 23.4616 23.3036 23.5595C23.3624 23.5399 23.5582 23.5399 23.754 23.5595C26.3782 23.4224 28.4345 21.2683 28.454 18.6049C28.454 15.8828 26.2411 13.6503 23.4995 13.6503Z" fill="#292D32"/>
<path d="M23.5 44.5517C18.232 44.5517 13.1991 42.5934 9.30205 39.0292C8.94955 38.7159 8.79288 38.2459 8.83205 37.7955C9.08663 35.4651 10.5358 33.2913 12.9445 31.6855C18.7804 27.808 28.2391 27.808 34.0554 31.6855C36.4641 33.3109 37.9133 35.4651 38.1679 37.7955C38.2266 38.2655 38.0504 38.7159 37.6979 39.0292C33.8008 42.5934 28.7679 44.5517 23.5 44.5517ZM11.9066 37.4038C15.1575 40.1259 19.2504 41.6142 23.5 41.6142C27.7495 41.6142 31.8425 40.1259 35.0933 37.4038C34.7408 36.2092 33.8008 35.0538 32.4104 34.1138C27.5929 30.9021 19.4266 30.9021 14.57 34.1138C13.1795 35.0538 12.2591 36.2092 11.9066 37.4038Z" fill="#292D32"/>
<path d="M23.4993 44.5514C11.8864 44.5514 2.44727 35.1123 2.44727 23.4993C2.44727 11.8864 11.8864 2.44727 23.4993 2.44727C35.1123 2.44727 44.5514 11.8864 44.5514 23.4993C44.5514 35.1123 35.1123 44.5514 23.4993 44.5514ZM23.4993 5.38477C13.5118 5.38477 5.38477 13.5118 5.38477 23.4993C5.38477 33.4868 13.5118 41.6139 23.4993 41.6139C33.4868 41.6139 41.6139 33.4868 41.6139 23.4993C41.6139 13.5118 33.4868 5.38477 23.4993 5.38477Z" fill="#292D32"/>
</svg>
