<svg width="26" height="24" viewBox="0 0 26 24" fill="none" xmlns="http://www.w3.org/2000/svg">
<path d="M14.4081 8.10961L15.8381 10.7496C16.0331 11.1096 16.5531 11.4696 16.9865 11.5296L19.5756 11.9296C21.2331 12.1896 21.6231 13.2896 20.4315 14.3896L18.4165 16.2496C18.0806 16.5596 17.8856 17.1696 17.994 17.6096L18.5682 19.9196C19.0232 21.7396 17.9723 22.4496 16.2281 21.4996L13.8015 20.1696C13.3573 19.9296 12.6423 19.9296 12.1981 20.1696L9.77146 21.4996C8.02729 22.4496 6.97645 21.7396 7.43145 19.9196L8.00565 17.6096C8.11398 17.1796 7.91897 16.5696 7.58313 16.2496L5.56815 14.3896C4.37648 13.2896 4.76646 12.1796 6.42396 11.9296L9.01314 11.5296C9.44648 11.4596 9.96647 11.1096 10.1615 10.7496L11.5915 8.10961C12.3606 6.67961 13.639 6.67961 14.4081 8.10961Z" stroke="#101010" stroke-width="1.5" stroke-linecap="round" stroke-linejoin="round"/>
<path d="M6.5 9V2" stroke="#101010" stroke-width="1.5" stroke-linecap="round" stroke-linejoin="round"/>
<path d="M19.5 9V2" stroke="#101010" stroke-width="1.5" stroke-linecap="round" stroke-linejoin="round"/>
<path d="M13 4V2" stroke="#101010" stroke-width="1.5" stroke-linecap="round" stroke-linejoin="round"/>
</svg>
