<svg width="17" height="17" viewBox="0 0 17 17" fill="none" xmlns="http://www.w3.org/2000/svg">
<path d="M14.875 4.23503C12.5162 4.00128 10.1433 3.88086 7.7775 3.88086C6.375 3.88086 4.9725 3.95169 3.57 4.09336L2.125 4.23503" stroke="#EA4335" stroke-width="1.5" stroke-linecap="round" stroke-linejoin="round"/>
<path d="M6.021 3.51977L6.17683 2.59185C6.29016 1.91893 6.37516 1.41602 7.57225 1.41602H9.42808C10.6252 1.41602 10.7172 1.94727 10.8235 2.59893L10.9793 3.51977" stroke="#EA4335" stroke-width="1.5" stroke-linecap="round" stroke-linejoin="round"/>
<path d="M13.3521 6.47461L12.8917 13.6075C12.8138 14.7196 12.75 15.5838 10.7738 15.5838H6.22628C4.25003 15.5838 4.18628 14.7196 4.10837 13.6075L3.64795 6.47461" stroke="#EA4335" stroke-width="1.5" stroke-linecap="round" stroke-linejoin="round"/>
<path d="M7.31689 11.6875H9.67564" stroke="#EA4335" stroke-width="1.5" stroke-linecap="round" stroke-linejoin="round"/>
<path d="M6.729 8.85352H10.2707" stroke="#EA4335" stroke-width="1.5" stroke-linecap="round" stroke-linejoin="round"/>
</svg>
